<?xml version="1.0" encoding="iso-8859-1"?>
<!-- Uploaded to: SVG Repo, www.svgrepo.com, Generator: SVG Repo Mixer Tools -->
<svg version="1.1" id="Layer_1" xmlns="http://www.w3.org/2000/svg" xmlns:xlink="http://www.w3.org/1999/xlink" 
	 viewBox="0 0 512 512" xml:space="preserve">
<path d="M379.092,512h-205.16c-21.863-0.061-39.571-17.769-39.632-39.632V39.632C134.361,17.769,152.069,0.061,173.932,0H379.1
	c21.862,0.061,39.571,17.769,39.632,39.632v432.736C418.662,494.231,400.955,511.935,379.092,512z"/>
<rect x="153.052" y="40.4" style="fill:#FFFFFF;" width="246.917" height="403.719"/>
<g>
	<path style="fill:#CCCCCC;" d="M313.54,24.424h-50.528c-2.279-0.004-4.124-1.85-4.128-4.128l0,0
		c0.004-2.278,1.85-4.124,4.128-4.128h50.528c2.278,0.004,4.124,1.85,4.128,4.128l0,0C317.664,22.574,315.818,24.419,313.54,24.424z
		"/>
	<circle style="fill:#CCCCCC;" cx="239.476" cy="20.296" r="4.128"/>
	<path style="fill:#CCCCCC;" d="M276.509,497.601c-10.781,0-19.52-8.739-19.52-19.52s8.739-19.52,19.52-19.52
		c10.781,0,19.52,8.739,19.52,19.52l0,0C296.015,488.856,287.283,497.587,276.509,497.601z M276.509,462.553
		c-8.571,0-15.52,6.949-15.52,15.52c0,8.571,6.949,15.52,15.52,15.52c8.571,0,15.52-6.949,15.52-15.52l0,0
		c0.009-8.58-6.94-15.543-15.52-15.552l0,0V462.553z"/>
</g>
<g>
	<polygon style="fill:#E21B1B;" points="106.868,315.856 93.268,296.072 196.404,225.169 231.468,271.912 345.22,192.281 
		358.98,211.937 226.204,304.896 191.028,257.992 	"/>
	<polygon style="fill:#E21B1B;" points="369.596,262.704 345.596,262.704 345.596,198.608 281.517,198.608 281.517,174.608 
		369.596,174.608 	"/>
</g>
</svg>